<svg width="296" height="194" viewBox="0 0 296 194" fill="none" xmlns="http://www.w3.org/2000/svg">
<g clip-path="url(#clip0_0_89)">
<path d="M273.104 93.6063H33.0803C29.863 93.6063 27.2456 90.9889 27.2456 87.7713V5.83469C27.2456 2.61742 29.863 0 33.0803 0H273.104C276.321 0 278.938 2.61742 278.938 5.83469V87.7713C278.938 90.9889 276.321 93.6063 273.104 93.6063ZM33.0803 0.695624C30.2467 0.695624 27.9412 3.00107 27.9412 5.83469V87.7713C27.9412 90.6051 30.2467 92.9107 33.0803 92.9107H273.104C275.937 92.9107 278.243 90.6051 278.243 87.7713V5.83469C278.243 3.00107 275.937 0.695624 273.104 0.695624H33.0803Z" fill="#3F3D56"/>
<path d="M296 191.49H0V192.076H296V191.49Z" fill="#D9D9D9"/>
<path d="M296 161.579H0V162.164H296V161.579Z" fill="#D9D9D9"/>
<path d="M134.896 96.6196C135.108 99.2908 136.659 101.346 138.359 101.211C140.058 101.075 141.264 98.8001 141.051 96.1281C140.98 95.0595 140.655 94.0233 140.102 93.1063L139.059 81.7998L133.763 82.4026L135.354 93.4848C134.953 94.4781 134.796 95.553 134.896 96.6196Z" fill="#FFB6B6"/>
<path d="M128.57 43.8707C128.57 43.8707 133.52 41.2503 136.03 45.1661C138.54 49.082 140.272 91.4325 140.272 91.4325L133.315 92.1752L131.996 62.332L128.57 43.8707V43.8707Z" fill="#D9D9D9"/>
<path d="M118.296 159.369L122.326 159.369L124.243 143.823L118.295 143.824L118.296 159.369Z" fill="#FFB6B6"/>
<path d="M132.104 159.278C132.229 159.489 132.295 160.171 132.295 160.417C132.295 161.172 131.683 161.785 130.927 161.785H118.446C117.931 161.785 117.513 161.367 117.513 160.852V160.332C117.513 160.332 116.896 158.77 118.167 156.845C118.167 156.845 119.747 158.352 122.108 155.992L122.804 154.731L127.843 158.416L130.636 158.76C131.247 158.835 131.789 158.748 132.104 159.278H132.104H132.104Z" fill="#2F2E41"/>
<path d="M141.618 158.702L145.523 157.704L143.533 142.168L137.77 143.64L141.618 158.702Z" fill="#FFB6B6"/>
<path d="M154.974 155.196C155.148 155.369 155.381 156.014 155.442 156.252C155.629 156.984 155.187 157.729 154.455 157.916L142.362 161.005C141.863 161.133 141.354 160.831 141.227 160.332L141.098 159.828C141.098 159.828 140.114 158.468 140.869 156.288C140.869 156.288 142.773 157.358 144.476 154.486L144.838 153.092L150.633 155.415L153.424 155.057C154.035 154.979 154.538 154.761 154.974 155.196H154.974Z" fill="#2F2E41"/>
<path d="M114.961 40.5289L114.77 39.1422L117.041 33.5953L123.282 32.9019L124.629 40.843L114.961 40.5289Z" fill="#FFB6B6"/>
<path opacity="0.1" d="M114.961 40.5289L114.77 39.1422L117.041 33.5953L123.282 32.9019L124.629 40.843L114.961 40.5289Z" fill="black"/>
<path d="M107.681 79.7038L104.908 87.3308L106.988 91.491L117.388 151.814H124.303L122.935 98.4246L138.882 151.814H145.726L140.223 115.759L136.109 82.4773L133.614 80.9359L121.548 74.157L107.681 79.7038Z" fill="#2F2E41"/>
<path d="M125.362 84.9041L121.202 85.5974L115.655 72.4236H128.135L125.362 84.9041Z" fill="#D9D9D9"/>
<path d="M133.682 81.4372L125.362 84.9041L122.588 78.6638L121.202 85.5974L106.641 80.9103L108.721 72.4235L106.641 44.689L113.984 39.7939L114.961 39.1422L123.975 39.8355L124.766 40.2654L130.215 43.3023L131.602 66.1833L133.682 81.4372Z" fill="#2F2E41"/>
<path d="M124.766 40.2654L120.855 56.8229L113.984 39.7939L114.962 39.1422L123.975 39.8355L124.766 40.2654Z" fill="#D9D9D9"/>
<path d="M118.082 39.1422L116.695 41.5304L118.082 42.3265L117.388 56.866L120.162 60.6364L122.935 55.0638L120.855 42.3265L121.548 39.1422H118.082Z" fill="#2F2E41"/>
<path d="M120.162 37.7555C123.8 37.7555 126.749 34.8064 126.749 31.1685C126.749 27.5306 123.8 24.5816 120.162 24.5816C116.524 24.5816 113.575 27.5306 113.575 31.1685C113.575 34.8064 116.524 37.7555 120.162 37.7555Z" fill="#FFB6B6"/>
<path d="M115.952 31.7463L117.375 32.3674L117.996 28.6406C117.996 28.6406 120.481 27.3983 122.344 28.0195C124.208 28.6406 127.314 28.0195 127.314 28.0195C127.314 28.0195 127.314 21.8081 122.966 21.8081C118.618 21.8081 114.27 22.4292 114.27 24.2927C114.27 26.1561 112.406 28.0195 112.406 28.0195C112.406 28.0195 109.922 31.7463 112.406 34.2308C114.891 36.7154 116.133 36.7154 116.133 36.7154L115.952 31.7463Z" fill="#2F2E41"/>
<path d="M103.171 96.4247C103.099 99.1033 104.422 101.312 106.127 101.358C107.832 101.403 109.272 99.269 109.344 96.5894C109.387 95.5194 109.174 94.4546 108.721 93.484L108.884 82.1306L103.554 82.1678L103.96 93.3563C103.456 94.3014 103.185 95.3536 103.171 96.4247V96.4247Z" fill="#FFB6B6"/>
<path d="M109.765 43.2893C109.765 43.2893 105.258 41.9026 103.178 46.0628C101.098 50.2229 103.871 92.518 103.871 92.518H110.867L109.011 62.7035L109.765 43.2893V43.2893Z" fill="#D9D9D9"/>
<path d="M282.652 122.085L265.845 116.94C265.473 116.826 265.083 116.785 264.696 116.818L179.516 124.067C178.302 124.17 177.996 125.808 179.092 126.342L181.821 127.672H181.748V191.304H184.319V128.889L192.87 133.055C193.524 133.373 194.255 133.503 194.979 133.43L195.889 133.338V191.304H198.46V133.079L264.342 126.424V191.304H266.913V126.164L277.84 125.06V191.304H280.411V124.801L282.404 124.599C283.804 124.458 283.997 122.497 282.652 122.085H282.652Z" fill="#3F3D56"/>
<path d="M204.244 123.815C205.851 123.815 229.633 120.923 229.633 120.923L233.168 125.743L208.422 130.564L204.244 123.815Z" fill="white"/>
<path d="M230.345 188.833L226.214 188.826L224.275 172.885L230.374 172.896L230.345 188.833Z" fill="#A0616A"/>
<path d="M216.19 188.715C216.061 188.931 215.991 189.631 215.991 189.883C215.99 190.657 216.616 191.286 217.391 191.287L230.187 191.309C230.715 191.31 231.144 190.883 231.145 190.354L231.146 189.822C231.146 189.822 231.782 188.222 230.482 186.246C230.482 186.246 228.859 187.788 226.443 185.364L225.732 184.07L220.559 187.839L217.695 188.187C217.068 188.263 216.513 188.173 216.19 188.715H216.19L216.19 188.715Z" fill="#2F2E41"/>
<path d="M252.521 181.42L249.261 183.879L238.225 172.476L243.037 168.846L252.521 181.42Z" fill="#A0616A"/>
<path d="M241.297 189.772C241.324 190.019 241.687 190.611 241.837 190.81C242.298 191.421 243.167 191.543 243.778 191.082L253.873 183.466C254.29 183.152 254.373 182.559 254.058 182.142L253.741 181.722C253.741 181.722 253.288 180.082 251.085 179.301C251.085 179.301 250.727 181.484 247.377 181.015L246.045 180.419L244.217 186.475L242.168 188.458C241.719 188.891 241.228 189.152 241.297 189.772L241.297 189.772Z" fill="#2F2E41"/>
<path d="M243.886 99.036C243.886 102.846 240.797 105.935 236.987 105.935C233.177 105.935 230.088 102.846 230.088 99.036C230.088 95.2258 233.177 92.137 236.987 92.137C240.797 92.137 243.886 95.2258 243.886 99.036Z" fill="#A0616A"/>
<path d="M243.236 138.814C243.236 138.814 217.835 137.376 216.397 140.252C214.959 143.128 224.17 182.627 224.17 182.627L232.387 180.905L228.379 153.192C228.379 153.192 249.575 158.806 252.451 152.096C255.327 145.386 254.499 142.888 254.499 142.888L243.236 138.814Z" fill="#2F2E41"/>
<path d="M249.744 133.987C249.744 133.987 224.867 139.32 224.241 142.474C223.615 145.627 242.947 181.283 242.947 181.283L250.416 177.448L239.219 151.783C239.219 151.783 261.146 151.59 262.144 144.358C263.143 137.127 261.683 134.937 261.683 134.937L249.744 133.987Z" fill="#2F2E41"/>
<path d="M252.582 106.943H240.63L232.452 120.362C232.452 120.362 230.535 129.034 232.452 129.97C234.369 130.906 234.369 140.971 234.369 140.971L254.499 142.888C254.499 142.888 257.374 112.694 256.416 109.818C255.457 106.943 252.582 106.943 252.582 106.943V106.943Z" fill="#C983DE" fill-opacity="0.75"/>
<path d="M252.582 106.943H240.63L232.452 120.362C232.452 120.362 230.535 129.034 232.452 129.97C234.369 130.906 234.369 140.971 234.369 140.971L254.499 142.888C254.499 142.888 257.374 112.694 256.416 109.818C255.457 106.943 252.582 106.943 252.582 106.943V106.943Z" fill="#154EDF" fill-opacity="0.83"/>
<path d="M233.65 115.809L232.452 129.97L218.975 124.251L215.759 122.633C215.129 121.812 214.311 121.153 213.375 120.712C211.045 119.577 208.572 119.858 207.85 121.34C207.128 122.822 208.43 124.943 210.759 126.078C211.683 126.544 212.706 126.782 213.742 126.772L223.153 132.117L223.164 132.096L223.206 132.171L237.964 138.335L241.36 119.745L233.65 115.809H233.65Z" fill="#A0616A"/>
<path d="M232.213 99.9932C232.213 99.9932 225.024 100.952 227.899 94.7212C227.899 94.7212 227.461 91.3437 229.597 91.1154C231.733 90.8871 234.609 87.0529 234.609 87.0529C234.609 87.0529 241.202 83.698 244.615 87.0529C248.029 90.4078 258.093 110.058 258.093 110.058L251.383 117.247C251.383 117.247 247.35 106.643 242.657 107.871C237.964 109.099 233.65 112.762 233.65 112.762C233.65 112.762 228.888 110.378 231.03 108.301C233.171 106.224 232.213 99.9932 232.213 99.9932Z" fill="#2F2E41"/>
<path d="M241.798 110.537C241.798 110.537 238.443 106.224 236.047 109.579C233.65 112.934 231.733 117.247 231.733 117.247L241.319 120.602L241.798 110.537H241.798Z" fill="#C983DE" fill-opacity="0.75"/>
<path d="M241.798 110.537C241.798 110.537 238.443 106.224 236.047 109.579C233.65 112.934 231.733 117.247 231.733 117.247L241.319 120.602L241.798 110.537H241.798Z" fill="#154EDF" fill-opacity="0.83"/>
<path d="M278.193 190.35L267.056 154.953L267.058 154.953H267.083L267.038 154.895L267.037 154.894L266.244 152.373L266.245 152.373C267.453 151.331 268.276 149.843 268.44 148.13L263.349 120.132C263.699 116.455 260.881 113.242 257.188 113.11L245.702 113.081C242.437 112.965 239.609 115.324 239.133 118.557L238.879 120.273L235.36 144.213C235.232 145.074 235.283 145.923 235.485 146.716L232.953 147.047L232.185 147.15L229.148 147.546L229.138 147.549L228.759 147.597H228.348V157.881H228.373V190.752C228.373 190.964 228.547 191.137 228.759 191.137C228.974 191.137 229.148 190.964 229.148 190.752V157.881H233.654L238.15 190.713C238.179 190.906 238.343 191.047 238.535 191.047C238.551 191.047 238.571 191.047 238.587 191.044C238.799 191.015 238.947 190.819 238.918 190.607L234.438 157.881H256.057C258.203 157.881 260.193 157.2 261.812 156.033L270.384 190.653C270.429 190.828 270.586 190.944 270.759 190.944C270.79 190.944 270.823 190.941 270.855 190.933C271.062 190.88 271.187 190.669 271.134 190.462L262.48 155.508C262.595 155.412 262.71 155.309 262.819 155.204L266.26 155.002L277.454 190.583C277.506 190.748 277.659 190.854 277.823 190.854C277.862 190.854 277.901 190.848 277.94 190.836C278.143 190.772 278.257 190.554 278.193 190.35ZM265.509 152.922C265.537 152.906 265.563 152.887 265.589 152.871L265.589 152.871L265.672 153.133L265.509 152.922Z" fill="#D9D9D9"/>
<path d="M59.6726 130.351L67.1676 125.585L70.2147 127.423L59.6726 139.536V130.351Z" fill="#FFB6B6"/>
<path d="M49.4233 111.902C49.4233 111.902 44.445 113.074 46.7877 119.809C49.1304 126.544 56.7442 140.601 59.0869 139.722C61.4296 138.843 61.7224 130.058 61.7224 130.058C61.7224 130.058 61.4296 130.351 60.2582 129.18C59.0869 128.009 59.0869 128.543 59.0869 127.251C59.0869 125.959 58.1288 125.001 58.1288 125.001L57.037 122.737C57.037 122.737 57.037 112.195 52.6445 111.61C48.2519 111.024 49.4233 111.902 49.4233 111.902L49.4233 111.902Z" fill="#D9D9D9"/>
<path d="M72.6818 127.108C74.6259 125.164 75.2285 122.614 74.0277 121.414C72.8269 120.213 70.2775 120.815 68.3334 122.76C66.3893 124.704 65.7867 127.253 66.9874 128.454C68.1882 129.655 70.7377 129.052 72.6818 127.108Z" fill="#FFB6B6"/>
<path d="M30.033 150.704L35.1472 159.168L64.951 157.405L57.0151 147.176L30.033 150.704Z" fill="#D9D9D9"/>
<path d="M38.9383 190.295C38.7648 190.295 38.6135 190.167 38.5893 189.99L29.6835 124.947C29.657 124.754 29.7921 124.576 29.985 124.549C30.1779 124.522 30.3558 124.658 30.3824 124.851L39.2882 189.894C39.3146 190.087 39.1796 190.265 38.9867 190.292C38.9704 190.294 38.9543 190.295 38.9383 190.295Z" fill="#D9D9D9"/>
<path d="M30.0329 190.378C29.8381 190.378 29.6802 190.22 29.6802 190.025V124.911C29.6802 124.717 29.8381 124.559 30.0329 124.559C30.2277 124.559 30.3856 124.717 30.3856 124.911V190.025C30.3856 190.22 30.2277 190.378 30.0329 190.378Z" fill="#D9D9D9"/>
<path d="M74.7385 190.119C74.5886 190.119 74.4495 190.022 74.4021 189.872L53.3279 122.889C53.2694 122.703 53.3727 122.505 53.5585 122.446C53.7442 122.388 53.9424 122.491 54.0007 122.677L75.075 189.66C75.1335 189.846 75.0302 190.044 74.8444 190.102C74.8092 190.113 74.7735 190.119 74.7385 190.119Z" fill="#D9D9D9"/>
<path d="M68.3014 190.201C68.1439 190.201 68.0005 190.095 67.9598 189.936L53.3225 130.818C53.2745 130.629 53.3886 130.437 53.5774 130.389C53.7667 130.342 53.9581 130.455 54.0062 130.644L68.6435 189.762C68.6915 189.95 68.5774 190.142 68.3887 190.19C68.3595 190.198 68.3302 190.201 68.3014 190.201H68.3014Z" fill="#D9D9D9"/>
<path d="M30.033 125.949L54.4579 125.573L58.955 151.233H30.3857L30.033 125.949Z" fill="#D9D9D9"/>
<path d="M67.5682 163.679L61.4126 174.516L68.5597 176.09L71.5394 168.382L67.5682 163.679Z" fill="#FFB6B6"/>
<path d="M63.6236 172.47C63.6236 172.47 63.3844 170.703 61.9782 171.264C60.572 171.825 56.5137 173.909 56.5137 173.909C56.5137 173.909 67.0989 191.109 69.1077 190.307C71.1166 189.506 68.7118 184.644 68.7118 184.644L69.2426 176.05L63.6236 172.47H63.6236Z" fill="#2F2E41"/>
<path d="M40.3454 142.65C40.3454 142.65 38.1491 152.753 44.8844 156.267C51.6196 159.781 74.6073 151.143 74.6073 151.143L64.0652 166.939L71.3861 169.884C71.3861 169.884 88.0778 147.921 86.9065 144.407C85.7351 140.893 77.8285 140.601 77.8285 140.601L59.9655 141.479L55.2801 140.015L40.3454 142.65H40.3454Z" fill="#2F2E41"/>
<path d="M58.4615 168.489L48.7844 176.343L54.869 180.41L60.4492 174.315L58.4615 168.489Z" fill="#FFB6B6"/>
<path d="M51.5882 175.242C51.5882 175.242 52.0085 173.509 50.4946 173.52C48.9807 173.53 44.4421 173.995 44.4421 173.995C44.4421 173.995 48.043 193.867 50.2057 193.852C52.3684 193.837 51.8976 188.433 51.8976 188.433L55.5192 180.621L51.5882 175.242Z" fill="#2F2E41"/>
<path d="M40.7569 138.996C40.7569 138.996 35.035 147.607 40.0298 153.331C45.0246 159.055 69.5799 159.373 69.5799 159.373L54.0126 170.25L59.7597 175.658C59.7597 175.658 83.299 161.275 83.4867 157.575C83.6743 153.876 76.4163 150.726 76.4163 150.726L59.4582 145.044L55.6268 141.976L40.7569 138.996H40.7569Z" fill="#2F2E41"/>
<path d="M55.4563 119.051C55.4563 119.051 49.8924 117.001 47.2569 117.001C47.005 117.001 46.7561 117.03 46.5072 117.083C44.8205 117.44 43.2684 118.89 42.5246 119.68C42.2347 119.991 42.0678 120.199 42.0678 120.199C42.0678 120.199 42.0854 119.997 42.1205 119.642C42.2933 117.78 42.9317 111.668 44.0767 107.756C44.4866 106.359 44.9581 105.243 45.4998 104.702C46.762 103.437 47.3447 101.92 47.6141 100.789C47.8425 99.8201 47.8425 99.1378 47.8425 99.1378L45.7078 98.2182L45.3124 95.6354C45.2421 95.94 44.9171 96.5344 43.8248 97.6736C43.7311 97.7702 43.6286 97.8522 43.5203 97.9225C41.9448 98.9123 38.7324 97.1904 37.0017 96.1069C37.7221 93.6031 39.0282 91.3131 41.4001 90.9383C46.964 90.0598 46.964 86.8386 50.4781 90.3526C50.768 90.6426 51.0608 90.9208 51.3537 91.1902C52.4782 93.3396 52.8881 96.2211 53.0345 98.2241C53.14 99.6268 53.1136 100.602 53.1136 100.602C53.1136 100.602 54.5778 109.387 56.9205 111.144C59.2632 112.901 55.4563 119.051 55.4563 119.051Z" fill="#2F2E41"/>
<path d="M44.6213 104.995L40.6646 110.798L49.5995 113.194V104.995H44.6213Z" fill="#FFB6B6"/>
<path opacity="0.1" d="M44.6213 104.995L40.6646 110.798L49.5995 113.194V104.995H44.6213Z" fill="black"/>
<path d="M50.1554 110.585L41.6631 107.071C41.6631 107.071 30.2424 112.049 31.121 121.713C31.9995 131.376 40.1989 148.068 40.1989 148.068L56.5978 141.04L54.8408 122.298L50.1554 110.585Z" fill="#D9D9D9"/>
<path d="M46.5142 107.586C50.6521 107.586 54.0064 104.231 54.0064 100.093C54.0064 95.9556 50.6521 92.6012 46.5142 92.6012C42.3764 92.6012 39.022 95.9556 39.022 100.093C39.022 104.231 42.3764 107.586 46.5142 107.586Z" fill="#FFB6B6"/>
<path d="M56.6278 97.3807C55.1636 98.8449 53.9922 100.309 53.9922 100.309L53.4066 97.9664C53.4066 97.9664 53.2718 98.066 53.0346 98.2241C52.1064 98.8566 49.6143 100.447 47.6142 100.789C46.724 100.942 45.9333 100.845 45.418 100.309C44.3257 99.17 44.0006 98.5755 43.9304 98.271L43.535 100.854L41.4002 101.773C41.4002 101.773 41.4002 104.989 43.7429 107.337C43.8571 107.451 43.9684 107.592 44.0768 107.756C45.1954 109.443 45.9978 113.572 46.5073 117.083C46.9583 120.204 47.175 122.834 47.175 122.834C47.175 122.834 44.9582 120.058 42.5247 119.68C42.39 119.66 42.2553 119.645 42.1206 119.642C42.0767 119.636 42.0298 119.636 41.9859 119.636C39.3504 119.636 33.7865 121.686 33.7865 121.686C33.7865 121.686 29.9796 115.537 32.3223 113.78C34.665 112.023 36.1292 103.237 36.1292 103.237C36.1292 103.237 36.0325 99.4774 37.0018 96.1069C37.7222 93.6031 39.0283 91.3131 41.4002 90.9383C46.9641 90.0598 46.9641 86.8386 50.4782 90.3526C50.7681 90.6426 51.0609 90.9208 51.3538 91.1902C54.6277 94.2005 57.9719 96.0366 56.6278 97.3807Z" fill="#2F2E41"/>
<path d="M23.7674 136.69H20.9849V191.645H23.7674V136.69Z" fill="#3F3D56"/>
<path d="M91.2429 136.69H88.4604V191.645H91.2429V136.69Z" fill="#3F3D56"/>
<path d="M73.5046 113.387H55.0706V131.821H73.5046V113.387Z" fill="#C983DE" fill-opacity="0.75"/>
<path d="M73.5046 113.387H55.0706V131.821H73.5046V113.387Z" fill="#154EDF" fill-opacity="0.83"/>
<path d="M44.4451 132.987L51.9401 128.22L54.9872 130.058L44.4451 142.172V132.987Z" fill="#FFB6B6"/>
<path d="M34.1957 114.538C34.1957 114.538 29.2175 115.709 31.5602 122.445C33.9029 129.18 41.5167 143.236 43.8593 142.358C46.202 141.479 46.4949 132.694 46.4949 132.694C46.4949 132.694 46.202 132.987 45.0307 131.815C43.8594 130.644 43.8593 131.179 43.8593 129.887C43.8593 128.594 42.9013 127.636 42.9013 127.636L41.8095 125.373C41.8095 125.373 41.8095 114.831 37.4169 114.245C33.0244 113.66 34.1957 114.538 34.1957 114.538H34.1957Z" fill="#D9D9D9"/>
<path d="M57.4542 129.743C59.3984 127.799 60.001 125.25 58.8002 124.049C57.5994 122.848 55.05 123.451 53.1058 125.395C51.1617 127.339 50.5591 129.889 51.7599 131.089C52.9607 132.29 55.5101 131.688 57.4542 129.743Z" fill="#FFB6B6"/>
<path d="M96.808 134.603H12.6375V140.864H96.808V134.603Z" fill="#3F3D56"/>
<path d="M182.324 84.5184H169.894C168.908 84.5184 168.109 85.3172 168.109 86.3026V91.4294C168.109 92.4148 168.908 93.2137 169.894 93.2137H182.324C183.31 93.2137 184.109 92.4148 184.109 91.4294V86.3026C184.109 85.3172 183.31 84.5184 182.324 84.5184Z" fill="#3F3D56"/>
<path d="M208.41 89.6451H195.98C194.994 89.6451 194.195 90.444 194.195 91.4294V91.4294C194.195 92.4148 194.994 93.2136 195.98 93.2136H208.41C209.396 93.2136 210.195 92.4148 210.195 91.4294V91.4294C210.195 90.444 209.396 89.6451 208.41 89.6451Z" fill="#C983DE" fill-opacity="0.75"/>
<path d="M208.41 89.6451H195.98C194.994 89.6451 194.195 90.444 194.195 91.4294V91.4294C194.195 92.4148 194.994 93.2136 195.98 93.2136H208.41C209.396 93.2136 210.195 92.4148 210.195 91.4294V91.4294C210.195 90.444 209.396 89.6451 208.41 89.6451Z" fill="#154EDF" fill-opacity="0.83"/>
</g>
<defs>
<clipPath id="clip0_0_89">
<rect width="296" height="193.852" fill="white"/>
</clipPath>
</defs>
</svg>
